<svg xmlns="http://www.w3.org/2000/svg" xmlns:xlink="http://www.w3.org/1999/xlink" width="842" zoomAndPan="magnify" viewBox="0 0 631.5 446.999989" height="596" preserveAspectRatio="xMidYMid meet" version="1.0"><defs><clipPath id="40488296d1"><path d="M 19.808594 152.59375 L 161.304688 152.59375 L 161.304688 294 L 19.808594 294 Z M 19.808594 152.59375 " clip-rule="nonzero"/></clipPath><clipPath id="0c0168cfa6"><path d="M 177.691406 167.347656 L 611.546875 167.347656 L 611.546875 243.296875 L 177.691406 243.296875 Z M 177.691406 167.347656 " clip-rule="nonzero"/></clipPath></defs><g clip-path="url(#40488296d1)"><path fill="#006ccd" d="M 88.941406 153.738281 L 115.296875 162.730469 C 115.066406 164.3125 113.003906 167.917969 112.316406 169.144531 C 107.519531 169.015625 78.523438 160.105469 76.621094 158.402344 C 75.003906 158.089844 75.390625 158.476562 74.59375 157.417969 C 72.441406 157.738281 71.390625 155.367188 68.078125 156.3125 C 66.191406 156.855469 63.414062 157.863281 62.25 158.886719 C 63.261719 160.761719 72.554688 162.734375 74.597656 164.445312 L 100.40625 172.695312 C 103.476562 173.589844 106.496094 174.15625 109.109375 175.167969 C 108.851562 177.078125 106.832031 180.480469 105.734375 181.765625 C 103.441406 181.851562 96.347656 179.871094 93.488281 179.25 C 86.894531 177.824219 77.476562 174.6875 70.824219 172.570312 C 69.523438 172.15625 61.269531 169.449219 60.292969 168.253906 C 59.355469 168.40625 59.558594 168.339844 58.386719 167.984375 L 53.777344 166.261719 C 53.242188 165.917969 53.507812 166.136719 53.125 165.730469 C 51.441406 165.6875 51.058594 164.796875 49.441406 166.003906 C 48.464844 166.730469 47.554688 167.859375 46.503906 167.964844 L 46.3125 169.355469 C 46.496094 169.484375 46.785156 170.066406 46.875 170.203125 C 48.402344 170.203125 57.902344 174.394531 60.679688 175.425781 C 63.089844 176.316406 65.277344 177.042969 67.65625 177.910156 C 69.332031 178.519531 73.367188 179.550781 74.453125 180.199219 C 79.261719 181.195312 83.414062 183 88.359375 184.042969 C 91.171875 184.632812 100.296875 186.535156 102.304688 187.523438 C 102.292969 189.207031 99.785156 192.414062 98.921875 193.84375 C 95.789062 194.046875 85.8125 191.570312 83.023438 190.800781 C 80.882812 190.210938 69.578125 188.144531 68.230469 186.65625 C 64.488281 186.84375 38.789062 176.808594 37.726562 176.671875 L 36.253906 178.113281 C 35.578125 179.601562 34.25 180.105469 34.066406 181.496094 L 37.917969 183.433594 C 38.5625 183.382812 48.128906 186.726562 48.707031 187.195312 C 50.625 187.527344 52.710938 188.402344 54.5 189.007812 C 55.796875 189.445312 59.277344 190.328125 60.203125 191.128906 C 61.988281 190.933594 66.507812 192.875 68.515625 193.390625 L 94.613281 199.394531 C 94.59375 201.058594 91.683594 204.636719 90.511719 205.683594 C 87.257812 205.804688 57.851562 199.535156 56.148438 198.390625 C 55.320312 198.269531 54.539062 198.132812 53.859375 197.9375 C 53.277344 197.765625 53.574219 197.914062 53.066406 197.65625 C 52.277344 197.257812 52.65625 197.542969 52.085938 196.949219 C 51.101562 197.160156 38.601562 193.289062 37.433594 192.53125 C 34.308594 192.046875 31.179688 189.933594 28.707031 189.734375 C 28.277344 190.210938 28.402344 190.1875 28.042969 190.683594 L 27.15625 191.714844 C 27.101562 193.265625 26.386719 193.023438 26.28125 194.851562 C 27.644531 196.011719 37.085938 198.949219 39.519531 199.753906 C 41.78125 200.496094 51.566406 203.144531 52.804688 203.859375 C 55.675781 204.359375 58.484375 205.3125 61.222656 205.980469 L 81.9375 210.484375 C 82.628906 210.648438 82.90625 210.742188 83.832031 210.929688 L 85.777344 211.613281 C 85.238281 213.074219 83.585938 214.613281 82.679688 215.652344 C 81.007812 217.5625 80.5625 217.746094 77.414062 217.066406 C 73.734375 216.273438 69.707031 215.789062 65.84375 215.039062 L 46.03125 210.613281 C 45.753906 210.542969 45.089844 210.382812 44.707031 210.222656 C 43.707031 209.796875 44.390625 210.207031 43.816406 209.695312 C 41.695312 209.789062 35.316406 207.554688 33.050781 206.890625 C 30.769531 206.230469 24.902344 203.878906 22.777344 203.941406 L 21.789062 207.074219 C 21.558594 209.632812 21.441406 209.648438 23.691406 210.34375 C 24.351562 210.546875 25.0625 210.730469 25.570312 210.894531 C 27.617188 211.558594 25.757812 210.355469 27.308594 211.753906 C 28.953125 211.648438 31.554688 212.75 33 213.25 C 38.109375 215.011719 56.871094 219.53125 62.464844 220.480469 C 63.988281 220.738281 73.902344 222.367188 74.78125 222.789062 C 74.507812 223.996094 73.761719 224.351562 72.695312 225.226562 C 65.984375 230.742188 68.320312 228.402344 55.578125 226.894531 C 53.296875 226.625 50.894531 225.90625 48.496094 225.40625 C 43.40625 224.34375 38.882812 223.164062 34.007812 222.097656 L 21.066406 218.757812 C 19.183594 218.890625 20.066406 224.164062 20.078125 224.1875 C 20.671875 225.3125 45.222656 230.980469 49.097656 231.746094 C 51.292969 232.183594 58.007812 232.867188 59.242188 233.613281 C 57.8125 234.742188 52.800781 236.382812 50.464844 236.90625 C 40.828125 239.074219 26.820312 236.671875 21.480469 231.371094 L 20.457031 231.367188 L 20.535156 232.621094 C 22.171875 237.433594 19.511719 237.757812 24.941406 240.15625 C 34.988281 244.59375 45.6875 244.929688 55.894531 241.625 C 67.710938 237.796875 77.257812 229.691406 85.097656 221.5625 C 92.703125 213.671875 99.578125 204.046875 106.136719 193.351562 C 108.652344 189.25 122.355469 164.582031 122.675781 160.628906 C 121.445312 159.460938 119.308594 159.050781 118.796875 158.359375 C 117.890625 158.148438 117.585938 158.105469 116.753906 157.785156 C 116.695312 157.761719 116.050781 157.449219 116.027344 157.4375 C 115.335938 157.023438 115.875 157.464844 115.386719 156.953125 C 114.46875 156.917969 108.605469 155.035156 106.679688 154.59375 C 105.808594 154.394531 98 153.105469 97.84375 153.03125 L 88.496094 152.59375 C 88.6875 153.058594 88.796875 153.441406 88.941406 153.734375 Z M 134.589844 275.28125 C 133.140625 276.574219 111.761719 283.65625 108.285156 284.605469 C 103.828125 285.816406 82.566406 292.027344 79.210938 291.207031 L 77.003906 292.0625 C 84.289062 295.261719 95.941406 293.414062 103.433594 292.28125 L 115.6875 288.9375 C 116.222656 288.4375 115.21875 288.878906 116.554688 288.351562 C 117.140625 288.121094 117.65625 288.082031 118.277344 287.976562 C 118.769531 287.550781 121.878906 286.542969 123.167969 285.824219 C 124.734375 284.949219 126.34375 283.976562 127.785156 283.109375 C 129.324219 282.1875 130.945312 281.167969 132.242188 280.234375 L 135.367188 277.753906 C 136.296875 277.035156 135.566406 277.316406 136.574219 277.082031 C 137.078125 276.21875 136.785156 276.554688 137.597656 275.804688 C 138.308594 275.148438 138.378906 275.140625 139.210938 274.75 C 139.308594 273.898438 139.191406 274.339844 139.625 274.253906 C 139.871094 272.765625 139.789062 273.800781 139.402344 273.402344 C 137.777344 273.660156 136.621094 274.738281 134.589844 275.277344 Z M 58.699219 283.09375 C 57.832031 283.617188 56.296875 283.554688 54.972656 283.621094 C 55.527344 284.8125 56.835938 284.503906 58.023438 285.996094 C 59.34375 285.902344 61.113281 287.238281 62.6875 287.972656 C 65.523438 289.292969 66.636719 288.011719 69.328125 288.265625 C 70.050781 287.648438 69.648438 287.9375 70.929688 287.703125 C 71.53125 287.597656 72.230469 287.539062 72.78125 287.453125 C 74.121094 287.242188 75.285156 287.101562 76.738281 286.953125 C 77.894531 286.390625 86.816406 285.042969 89.285156 284.433594 C 93.472656 283.402344 97.378906 282.578125 101.234375 281.40625 L 124.386719 274.253906 L 126.039062 273.296875 C 129.738281 271.808594 136.175781 269.074219 139.402344 268.1875 C 140.539062 266.945312 146.621094 265.339844 148.285156 263.792969 C 149.136719 263.003906 152.996094 256.867188 153.425781 255.257812 C 151.414062 255.644531 145.148438 258.957031 142.738281 260.015625 C 124.046875 268.234375 105.523438 275.035156 85.175781 279.296875 C 80.871094 280.199219 62.265625 283.820312 58.699219 283.09375 Z M 44.601562 272.925781 C 43.933594 273.402344 43.003906 273.265625 41.875 273.34375 L 41.992188 274.652344 C 42.453125 274.816406 42.039062 274.597656 42.578125 274.949219 C 42.925781 275.179688 43.035156 275.289062 43.332031 275.546875 L 47.214844 278.957031 C 49.203125 279.144531 53.769531 278.863281 55.757812 278.476562 C 66.078125 279.238281 93.417969 272.199219 104.203125 269.277344 C 113.765625 266.6875 126.503906 261.621094 135.871094 257.660156 C 137.71875 256.875 144.863281 253.476562 146.167969 253.363281 C 146.972656 252.414062 149.503906 251.308594 150.8125 250.851562 C 152.515625 249.878906 155.046875 248.367188 156.847656 247.773438 C 157.519531 245.503906 158.730469 243.277344 159.007812 240.601562 C 158.351562 239.867188 159.265625 240.449219 157.914062 240.269531 C 155.472656 242.351562 132.332031 253.039062 126.960938 255.058594 C 112.160156 260.625 92.941406 267.332031 77.59375 269.609375 C 69.96875 270.742188 52.296875 274.234375 44.601562 272.925781 Z M 25.085938 250.3125 C 25.15625 250.382812 25.257812 250.394531 25.285156 250.535156 L 26.339844 252.988281 C 28.128906 254.296875 25.433594 255.671875 34.332031 256.992188 C 44.90625 258.5625 56.652344 256.308594 65.796875 251.875 C 71.25 249.234375 76.824219 245.683594 81.050781 242.304688 C 94.226562 231.78125 106.503906 216.890625 115.089844 201.96875 C 118.023438 196.875 121.097656 191.972656 124.035156 186.109375 C 124.765625 184.644531 131.960938 169.886719 132.136719 169.707031 C 132.488281 168.367188 132.835938 168.070312 132.683594 166.40625 C 131.007812 165.898438 130.160156 164.265625 128.171875 163.746094 C 126.867188 166.148438 125.746094 169.378906 124.359375 172.132812 C 114.480469 191.734375 106.757812 207.148438 91.460938 224.085938 C 79.976562 236.808594 63.839844 249.964844 45.796875 251.316406 C 32.019531 252.34375 30.703125 249.097656 24.824219 248.320312 Z M 137.835938 171.78125 C 137.714844 173.46875 131.429688 186.316406 130.257812 188.464844 C 121.828125 203.964844 117.519531 212.070312 106.539062 225.894531 C 102.089844 231.496094 93.992188 240.589844 88.550781 244.921875 C 86.210938 246.785156 84.242188 248.480469 81.664062 250.269531 C 76.269531 254.023438 72.320312 256.5625 66.199219 259.253906 C 57.519531 263.066406 40.359375 261.621094 32.445312 262.546875 C 32.769531 264.492188 35.621094 267.964844 36.871094 268.398438 C 39.417969 269.285156 62.535156 266.941406 65.390625 266.488281 C 77.203125 264.621094 88.015625 262.417969 99.117188 259.308594 C 115.488281 254.714844 128.5625 249.121094 143.40625 242.164062 C 145.355469 241.25 156.273438 235.546875 157.15625 235.5 C 157.515625 235.074219 157.289062 235.277344 157.785156 234.914062 C 158.085938 234.6875 158.328125 234.566406 158.679688 234.382812 C 159.304688 234.054688 159.722656 233.832031 160.488281 233.515625 L 160.328125 233.617188 C 161.144531 230.65625 162.011719 220.414062 161.050781 217 C 159.253906 217.144531 160.085938 218.492188 158.445312 219.976562 C 158.269531 221.792969 156.582031 224.316406 155.570312 226.058594 C 154.566406 227.792969 153.738281 230.1875 152.035156 231.230469 C 150.464844 232.1875 141.597656 236.773438 140.109375 237.050781 L 155.007812 211.78125 C 155.398438 210.300781 156.800781 207.558594 157.589844 206.070312 C 159.1875 203.0625 157.753906 202.285156 157.214844 199.394531 L 156.164062 196.726562 C 155.117188 196.984375 155.246094 197.125 154.707031 198.230469 L 151.917969 204.214844 C 145.003906 217.984375 139.085938 227.984375 130.019531 240.640625 C 128.296875 243.050781 125.660156 243.507812 122.347656 244.859375 C 120.472656 245.625 115.566406 247.703125 113.980469 247.886719 C 114.707031 246.339844 117.667969 243.511719 119.300781 241.464844 C 131.375 226.367188 140.234375 212.167969 148.65625 194.695312 L 150.457031 191.171875 C 150.882812 189.625 151.597656 188.96875 151.414062 187.089844 C 150.242188 185.761719 149.257812 182.917969 147.6875 182.351562 L 144.507812 189.300781 C 141.335938 196.757812 137.210938 203.789062 133.28125 210.734375 C 126.6875 222.378906 111.445312 243.660156 101.675781 251.773438 C 99.554688 253.535156 85.292969 256.878906 82.824219 256.984375 C 83.621094 256.003906 85.988281 254.441406 87.523438 253.328125 C 90.945312 250.851562 97.425781 244.84375 100.265625 241.972656 C 112.6875 229.414062 128.632812 206.5625 136.328125 189.675781 C 136.792969 188.65625 137.167969 187.816406 137.644531 186.757812 C 138.304688 185.296875 138.273438 185.199219 139.214844 184.425781 C 139.234375 182.351562 142.273438 178.511719 142.613281 175.648438 C 142.347656 174.449219 139.585938 173.066406 139.195312 171.542969 C 138.308594 171.566406 138.519531 171.511719 137.832031 171.78125 Z M 137.835938 171.78125 " fill-opacity="1" fill-rule="evenodd"/></g><path fill="#006ccd" d="M 188.710938 274.054688 C 188.710938 276.152344 188.011719 277.777344 186.613281 278.929688 C 185.222656 280.089844 183.253906 280.664062 180.71875 280.664062 C 179.667969 280.664062 178.742188 280.59375 177.941406 280.453125 C 177.144531 280.3125 176.394531 280.074219 175.691406 279.726562 L 175.691406 277.195312 C 177.300781 278.035156 178.988281 278.449219 180.753906 278.449219 C 182.363281 278.449219 183.636719 278.074219 184.574219 277.324219 C 185.515625 276.574219 185.992188 275.542969 185.992188 274.230469 C 185.992188 273.457031 185.726562 272.777344 185.207031 272.191406 C 184.691406 271.601562 183.722656 270.902344 182.300781 270.09375 C 180.800781 269.25 179.757812 268.40625 179.171875 267.5625 C 178.589844 266.714844 178.304688 265.710938 178.304688 264.5625 C 178.304688 262.707031 178.960938 261.195312 180.273438 260.027344 C 181.585938 258.855469 183.308594 258.269531 185.441406 258.269531 C 186.425781 258.269531 187.34375 258.371094 188.195312 258.5625 C 189.042969 258.75 189.945312 259.074219 190.890625 259.523438 L 189.90625 261.761719 C 189.25 261.386719 188.511719 261.089844 187.691406 260.871094 C 186.875 260.65625 186.125 260.542969 185.441406 260.542969 C 184.109375 260.542969 183.042969 260.890625 182.230469 261.574219 C 181.425781 262.265625 181.023438 263.203125 181.023438 264.386719 C 181.023438 264.921875 181.105469 265.378906 181.269531 265.757812 C 181.4375 266.144531 181.707031 266.507812 182.078125 266.847656 C 182.445312 267.1875 183.148438 267.65625 184.199219 268.253906 C 185.65625 269.132812 186.640625 269.820312 187.152344 270.316406 C 187.660156 270.808594 188.046875 271.359375 188.3125 271.957031 C 188.574219 272.5625 188.710938 273.257812 188.710938 274.054688 Z M 188.710938 274.054688 " fill-opacity="1" fill-rule="nonzero"/><path fill="#006ccd" d="M 199.933594 263.742188 C 200.847656 263.742188 201.664062 263.988281 202.382812 264.480469 C 203.101562 264.972656 203.65625 265.683594 204.046875 266.601562 L 204.210938 266.601562 L 205.21875 264.035156 L 207.105469 264.035156 L 203.636719 280.371094 L 201.65625 280.371094 L 202.042969 277.253906 L 201.925781 277.253906 C 200.144531 279.527344 198.269531 280.664062 196.300781 280.664062 C 194.925781 280.664062 193.84375 280.179688 193.054688 279.199219 C 192.273438 278.214844 191.882812 276.867188 191.882812 275.15625 C 191.882812 273.09375 192.234375 271.183594 192.9375 269.414062 C 193.640625 267.644531 194.613281 266.257812 195.855469 265.253906 C 197.097656 264.246094 198.457031 263.742188 199.933594 263.742188 Z M 197.109375 278.601562 C 198.070312 278.601562 199.027344 278.144531 199.980469 277.21875 C 200.933594 276.300781 201.707031 275.105469 202.300781 273.632812 C 202.902344 272.15625 203.203125 270.679688 203.203125 269.191406 C 203.203125 268.171875 202.925781 267.359375 202.371094 266.753906 C 201.816406 266.144531 201.085938 265.839844 200.179688 265.839844 C 199.148438 265.839844 198.1875 266.273438 197.296875 267.128906 C 196.40625 267.984375 195.707031 269.140625 195.199219 270.597656 C 194.691406 272.0625 194.4375 273.597656 194.4375 275.214844 C 194.4375 276.351562 194.671875 277.195312 195.140625 277.757812 C 195.609375 278.320312 196.265625 278.601562 197.109375 278.601562 Z M 197.109375 278.601562 " fill-opacity="1" fill-rule="nonzero"/><path fill="#006ccd" d="M 206.109375 287.710938 C 205.421875 287.710938 204.800781 287.605469 204.242188 287.394531 L 204.242188 285.296875 C 204.878906 285.511719 205.433594 285.625 205.910156 285.625 C 206.667969 285.625 207.25 285.3125 207.65625 284.699219 C 208.058594 284.078125 208.386719 283.199219 208.640625 282.0625 L 212.027344 265.933594 L 209.144531 265.933594 L 209.34375 264.9375 L 212.414062 263.953125 L 212.753906 262.464844 C 213.203125 260.472656 213.835938 259.074219 214.652344 258.257812 C 215.460938 257.4375 216.660156 257.027344 218.25 257.027344 C 218.648438 257.027344 219.128906 257.085938 219.703125 257.203125 C 220.277344 257.316406 220.726562 257.4375 221.050781 257.578125 L 220.40625 259.5 C 219.65625 259.214844 218.976562 259.066406 218.367188 259.066406 C 217.503906 259.066406 216.84375 259.308594 216.375 259.792969 C 215.910156 260.269531 215.535156 261.148438 215.25 262.429688 L 214.886719 264.035156 L 218.425781 264.035156 L 218.050781 265.933594 L 214.523438 265.933594 L 211.066406 282.296875 C 210.679688 284.171875 210.085938 285.542969 209.285156 286.410156 C 208.476562 287.277344 207.421875 287.710938 206.109375 287.710938 Z M 206.109375 287.710938 " fill-opacity="1" fill-rule="nonzero"/><path fill="#006ccd" d="M 224.539062 280.664062 C 222.710938 280.664062 221.273438 280.125 220.226562 279.046875 C 219.1875 277.964844 218.667969 276.464844 218.667969 274.546875 C 218.667969 272.683594 219.035156 270.890625 219.769531 269.179688 C 220.511719 267.464844 221.492188 266.128906 222.710938 265.171875 C 223.9375 264.222656 225.285156 263.742188 226.753906 263.742188 C 228.277344 263.742188 229.417969 264.078125 230.175781 264.738281 C 230.941406 265.394531 231.324219 266.316406 231.324219 267.492188 C 231.324219 269.285156 230.5 270.691406 228.851562 271.710938 C 227.203125 272.730469 224.84375 273.234375 221.773438 273.234375 L 221.28125 273.234375 L 221.222656 274.429688 C 221.222656 275.730469 221.527344 276.746094 222.136719 277.476562 C 222.753906 278.203125 223.703125 278.566406 224.984375 278.566406 C 225.609375 278.566406 226.25 278.480469 226.90625 278.296875 C 227.570312 278.121094 228.394531 277.792969 229.378906 277.3125 L 229.378906 279.492188 C 228.441406 279.933594 227.613281 280.238281 226.894531 280.40625 C 226.183594 280.578125 225.398438 280.664062 224.539062 280.664062 Z M 226.601562 265.875 C 225.578125 265.875 224.617188 266.34375 223.71875 267.28125 C 222.820312 268.214844 222.132812 269.507812 221.65625 271.160156 L 221.832031 271.160156 C 224.097656 271.160156 225.832031 270.867188 227.035156 270.28125 C 228.246094 269.691406 228.851562 268.828125 228.851562 267.703125 C 228.851562 267.183594 228.667969 266.75 228.300781 266.402344 C 227.941406 266.050781 227.375 265.875 226.601562 265.875 Z M 226.601562 265.875 " fill-opacity="1" fill-rule="nonzero"/><path fill="#006ccd" d="M 248.644531 264.035156 L 248.269531 265.640625 L 245.128906 265.992188 C 245.535156 266.613281 245.738281 267.398438 245.738281 268.347656 C 245.738281 270.246094 245.15625 271.757812 243.992188 272.882812 C 242.835938 274.007812 241.289062 274.570312 239.351562 274.570312 C 238.8125 274.570312 238.394531 274.535156 238.109375 274.453125 C 236.726562 274.988281 236.035156 275.636719 236.035156 276.410156 C 236.035156 276.820312 236.199219 277.089844 236.527344 277.21875 C 236.855469 277.355469 237.328125 277.460938 237.957031 277.535156 L 239.703125 277.746094 C 241.5 277.96875 242.800781 278.402344 243.605469 279.058594 C 244.417969 279.714844 244.824219 280.679688 244.824219 281.957031 C 244.824219 283.785156 244.097656 285.195312 242.644531 286.199219 C 241.195312 287.207031 239.15625 287.710938 236.527344 287.710938 C 234.597656 287.710938 233.085938 287.339844 232.003906 286.609375 C 230.910156 285.882812 230.363281 284.851562 230.363281 283.515625 C 230.363281 282.472656 230.722656 281.570312 231.441406 280.804688 C 232.152344 280.042969 233.304688 279.386719 234.898438 278.847656 C 234.125 278.445312 233.738281 277.839844 233.738281 277.042969 C 233.738281 276.363281 233.988281 275.777344 234.5 275.285156 C 235.007812 274.792969 235.710938 274.335938 236.621094 273.902344 C 235.988281 273.585938 235.472656 273.117188 235.074219 272.496094 C 234.679688 271.882812 234.488281 271.160156 234.488281 270.328125 C 234.488281 268.402344 235.078125 266.824219 236.269531 265.59375 C 237.457031 264.363281 238.96875 263.742188 240.816406 263.742188 C 241.589844 263.742188 242.355469 263.84375 243.113281 264.035156 Z M 232.777344 283.28125 C 232.777344 284.042969 233.097656 284.652344 233.738281 285.097656 C 234.386719 285.542969 235.347656 285.765625 236.621094 285.765625 C 238.425781 285.765625 239.835938 285.449219 240.851562 284.816406 C 241.875 284.1875 242.386719 283.296875 242.386719 282.144531 C 242.386719 281.523438 242.117188 281.035156 241.578125 280.675781 C 241.039062 280.324219 240.125 280.078125 238.835938 279.9375 L 236.46875 279.703125 C 235.273438 279.957031 234.359375 280.390625 233.726562 281.015625 C 233.09375 281.640625 232.777344 282.394531 232.777344 283.28125 Z M 236.914062 270.234375 C 236.914062 271.078125 237.136719 271.722656 237.582031 272.167969 C 238.027344 272.613281 238.648438 272.835938 239.445312 272.835938 C 240.234375 272.835938 240.921875 272.632812 241.507812 272.214844 C 242.09375 271.792969 242.542969 271.21875 242.855469 270.492188 C 243.164062 269.761719 243.324219 268.96875 243.324219 268.113281 C 243.324219 267.292969 243.105469 266.671875 242.667969 266.25 C 242.226562 265.824219 241.605469 265.605469 240.792969 265.605469 C 240.011719 265.605469 239.332031 265.8125 238.753906 266.214844 C 238.171875 266.613281 237.722656 267.175781 237.394531 267.890625 C 237.070312 268.613281 236.914062 269.390625 236.914062 270.234375 Z M 236.914062 270.234375 " fill-opacity="1" fill-rule="nonzero"/><path fill="#006ccd" d="M 254.25 264.035156 L 252.023438 274.394531 C 251.839844 275.28125 251.753906 275.972656 251.753906 276.46875 C 251.753906 277.894531 252.480469 278.601562 253.945312 278.601562 C 254.816406 278.601562 255.679688 278.308594 256.523438 277.710938 C 257.367188 277.113281 258.109375 276.257812 258.75 275.144531 C 259.398438 274.03125 259.890625 272.683594 260.226562 271.113281 L 261.714844 264.035156 L 264.199219 264.035156 L 260.753906 280.371094 L 258.679688 280.371094 L 259.007812 277.347656 L 258.832031 277.347656 C 257.851562 278.589844 256.921875 279.457031 256.042969 279.9375 C 255.15625 280.421875 254.242188 280.664062 253.300781 280.664062 C 252.023438 280.664062 251.027344 280.324219 250.300781 279.632812 C 249.578125 278.949219 249.222656 277.964844 249.222656 276.679688 C 249.222656 276.066406 249.328125 275.210938 249.550781 274.113281 L 251.71875 264.035156 Z M 254.25 264.035156 " fill-opacity="1" fill-rule="nonzero"/><path fill="#006ccd" d="M 274.65625 263.742188 C 275.570312 263.742188 276.386719 263.988281 277.105469 264.480469 C 277.824219 264.972656 278.378906 265.683594 278.773438 266.601562 L 278.9375 266.601562 L 279.945312 264.035156 L 281.832031 264.035156 L 278.363281 280.371094 L 276.378906 280.371094 L 276.765625 277.253906 L 276.648438 277.253906 C 274.867188 279.527344 272.992188 280.664062 271.023438 280.664062 C 269.648438 280.664062 268.566406 280.179688 267.777344 279.199219 C 266.996094 278.214844 266.605469 276.867188 266.605469 275.15625 C 266.605469 273.09375 266.957031 271.183594 267.660156 269.414062 C 268.363281 267.644531 269.335938 266.257812 270.578125 265.253906 C 271.820312 264.246094 273.179688 263.742188 274.65625 263.742188 Z M 271.832031 278.601562 C 272.792969 278.601562 273.75 278.144531 274.703125 277.21875 C 275.65625 276.300781 276.429688 275.105469 277.023438 273.632812 C 277.625 272.15625 277.925781 270.679688 277.925781 269.191406 C 277.925781 268.171875 277.648438 267.359375 277.09375 266.753906 C 276.539062 266.144531 275.808594 265.839844 274.902344 265.839844 C 273.871094 265.839844 272.910156 266.273438 272.019531 267.128906 C 271.128906 267.984375 270.429688 269.140625 269.921875 270.597656 C 269.414062 272.0625 269.160156 273.597656 269.160156 275.214844 C 269.160156 276.351562 269.394531 277.195312 269.863281 277.757812 C 270.332031 278.320312 270.988281 278.601562 271.832031 278.601562 Z M 271.832031 278.601562 " fill-opacity="1" fill-rule="nonzero"/><path fill="#006ccd" d="M 293.582031 263.742188 C 294.265625 263.742188 294.863281 263.8125 295.375 263.953125 L 294.835938 266.191406 C 294.3125 266.0625 293.785156 265.992188 293.265625 265.992188 C 292.367188 265.992188 291.523438 266.296875 290.734375 266.894531 C 289.941406 267.492188 289.25 268.3125 288.660156 269.367188 C 288.066406 270.421875 287.632812 271.601562 287.359375 272.894531 L 285.765625 280.371094 L 283.257812 280.371094 L 286.75 264.035156 L 288.8125 264.035156 L 288.484375 267.070312 L 288.636719 267.070312 C 289.355469 266.128906 289.941406 265.449219 290.40625 265.03125 C 290.875 264.621094 291.359375 264.304688 291.871094 264.082031 C 292.386719 263.859375 292.953125 263.742188 293.582031 263.742188 Z M 293.582031 263.742188 " fill-opacity="1" fill-rule="nonzero"/><path fill="#006ccd" d="M 303.976562 263.777344 C 305.902344 263.777344 307.304688 264.722656 308.171875 266.601562 L 308.3125 266.601562 C 308.480469 265.066406 308.710938 263.707031 308.992188 262.523438 L 310.152344 257.191406 L 312.625 257.191406 L 307.703125 280.371094 L 305.640625 280.371094 L 305.96875 277.253906 L 305.839844 277.253906 C 304.835938 278.496094 303.898438 279.375 303.027344 279.890625 C 302.148438 280.40625 301.246094 280.664062 300.320312 280.664062 C 298.9375 280.664062 297.859375 280.183594 297.085938 279.210938 C 296.3125 278.238281 295.925781 276.886719 295.925781 275.15625 C 295.925781 273.035156 296.277344 271.089844 296.992188 269.320312 C 297.707031 267.550781 298.671875 266.179688 299.886719 265.21875 C 301.105469 264.257812 302.464844 263.777344 303.976562 263.777344 Z M 301.152344 278.601562 C 302.078125 278.601562 303.039062 278.140625 304.035156 277.207031 C 305.03125 276.28125 305.820312 275.09375 306.402344 273.644531 C 306.976562 272.203125 307.269531 270.726562 307.269531 269.226562 C 307.269531 268.125 307 267.289062 306.460938 266.707031 C 305.925781 266.132812 305.148438 265.839844 304.128906 265.839844 C 303.125 265.839844 302.195312 266.25 301.339844 267.070312 C 300.476562 267.890625 299.785156 269.046875 299.265625 270.527344 C 298.738281 272.015625 298.480469 273.574219 298.480469 275.214844 C 298.480469 277.476562 299.371094 278.601562 301.152344 278.601562 Z M 301.152344 278.601562 " fill-opacity="1" fill-rule="nonzero"/><path fill="#006ccd" d="M 315.453125 280.371094 L 312.945312 280.371094 L 316.4375 264.035156 L 318.933594 264.035156 Z M 317.128906 259.863281 C 317.128906 259.308594 317.289062 258.855469 317.609375 258.503906 C 317.929688 258.152344 318.34375 257.976562 318.851562 257.976562 C 319.71875 257.976562 320.152344 258.421875 320.152344 259.3125 C 320.152344 259.859375 319.984375 260.328125 319.648438 260.707031 C 319.320312 261.082031 318.9375 261.269531 318.5 261.269531 C 318.101562 261.269531 317.773438 261.148438 317.515625 260.90625 C 317.257812 260.667969 317.128906 260.316406 317.128906 259.863281 Z M 317.128906 259.863281 " fill-opacity="1" fill-rule="nonzero"/><path fill="#006ccd" d="M 330.675781 280.371094 L 332.882812 270.058594 C 333.082031 269.027344 333.1875 268.3125 333.1875 267.914062 C 333.1875 267.292969 333.003906 266.789062 332.648438 266.414062 C 332.296875 266.035156 331.734375 265.839844 330.960938 265.839844 C 330.074219 265.839844 329.210938 266.144531 328.367188 266.742188 C 327.53125 267.339844 326.792969 268.183594 326.152344 269.285156 C 325.511719 270.386719 325.027344 271.722656 324.699219 273.292969 L 323.199219 280.371094 L 320.691406 280.371094 L 324.183594 264.035156 L 326.246094 264.035156 L 325.917969 267.070312 L 326.070312 267.070312 C 327.023438 265.851562 327.945312 264.996094 328.835938 264.492188 C 329.726562 263.996094 330.648438 263.742188 331.605469 263.742188 C 332.859375 263.742188 333.855469 264.09375 334.582031 264.785156 C 335.3125 265.476562 335.683594 266.4375 335.683594 267.679688 C 335.683594 268.464844 335.566406 269.355469 335.34375 270.363281 L 333.210938 280.371094 Z M 330.675781 280.371094 " fill-opacity="1" fill-rule="nonzero"/><path fill="#006ccd" d="M 353.816406 264.035156 L 353.441406 265.640625 L 350.300781 265.992188 C 350.707031 266.613281 350.910156 267.398438 350.910156 268.347656 C 350.910156 270.246094 350.328125 271.757812 349.164062 272.882812 C 348.007812 274.007812 346.460938 274.570312 344.523438 274.570312 C 343.984375 274.570312 343.570312 274.535156 343.28125 274.453125 C 341.898438 274.988281 341.207031 275.636719 341.207031 276.410156 C 341.207031 276.820312 341.371094 277.089844 341.699219 277.21875 C 342.027344 277.355469 342.503906 277.460938 343.128906 277.535156 L 344.875 277.746094 C 346.671875 277.96875 347.972656 278.402344 348.777344 279.058594 C 349.589844 279.714844 349.996094 280.679688 349.996094 281.957031 C 349.996094 283.785156 349.269531 285.195312 347.816406 286.199219 C 346.371094 287.207031 344.332031 287.710938 341.699219 287.710938 C 339.769531 287.710938 338.261719 287.339844 337.175781 286.609375 C 336.082031 285.882812 335.535156 284.851562 335.535156 283.515625 C 335.535156 282.472656 335.894531 281.570312 336.613281 280.804688 C 337.324219 280.042969 338.476562 279.386719 340.070312 278.847656 C 339.296875 278.445312 338.910156 277.839844 338.910156 277.042969 C 338.910156 276.363281 339.164062 275.777344 339.671875 275.285156 C 340.179688 274.792969 340.886719 274.335938 341.792969 273.902344 C 341.160156 273.585938 340.644531 273.117188 340.246094 272.496094 C 339.855469 271.882812 339.660156 271.160156 339.660156 270.328125 C 339.660156 268.402344 340.253906 266.824219 341.441406 265.59375 C 342.628906 264.363281 344.144531 263.742188 345.988281 263.742188 C 346.761719 263.742188 347.527344 263.84375 348.285156 264.035156 Z M 337.949219 283.28125 C 337.949219 284.042969 338.269531 284.652344 338.910156 285.097656 C 339.558594 285.542969 340.519531 285.765625 341.792969 285.765625 C 343.597656 285.765625 345.007812 285.449219 346.023438 284.816406 C 347.046875 284.1875 347.558594 283.296875 347.558594 282.144531 C 347.558594 281.523438 347.289062 281.035156 346.75 280.675781 C 346.210938 280.324219 345.296875 280.078125 344.007812 279.9375 L 341.640625 279.703125 C 340.445312 279.957031 339.53125 280.390625 338.898438 281.015625 C 338.265625 281.640625 337.949219 282.394531 337.949219 283.28125 Z M 342.085938 270.234375 C 342.085938 271.078125 342.308594 271.722656 342.753906 272.167969 C 343.199219 272.613281 343.820312 272.835938 344.617188 272.835938 C 345.40625 272.835938 346.09375 272.632812 346.679688 272.214844 C 347.265625 271.792969 347.714844 271.21875 348.027344 270.492188 C 348.339844 269.761719 348.496094 268.96875 348.496094 268.113281 C 348.496094 267.292969 348.277344 266.671875 347.839844 266.25 C 347.402344 265.824219 346.777344 265.605469 345.964844 265.605469 C 345.183594 265.605469 344.503906 265.8125 343.925781 266.214844 C 343.347656 266.613281 342.894531 267.175781 342.566406 267.890625 C 342.246094 268.613281 342.085938 269.390625 342.085938 270.234375 Z M 342.085938 270.234375 " fill-opacity="1" fill-rule="nonzero"/><path fill="#006ccd" d="M 374.238281 274.054688 C 374.238281 276.152344 373.539062 277.777344 372.140625 278.929688 C 370.75 280.089844 368.78125 280.664062 366.246094 280.664062 C 365.195312 280.664062 364.269531 280.59375 363.46875 280.453125 C 362.671875 280.3125 361.921875 280.074219 361.21875 279.726562 L 361.21875 277.195312 C 362.824219 278.035156 364.515625 278.449219 366.28125 278.449219 C 367.890625 278.449219 369.164062 278.074219 370.101562 277.324219 C 371.042969 276.574219 371.519531 275.542969 371.519531 274.230469 C 371.519531 273.457031 371.253906 272.777344 370.734375 272.191406 C 370.21875 271.601562 369.25 270.902344 367.828125 270.09375 C 366.328125 269.25 365.285156 268.40625 364.699219 267.5625 C 364.117188 266.714844 363.832031 265.710938 363.832031 264.5625 C 363.832031 262.707031 364.488281 261.195312 365.800781 260.027344 C 367.113281 258.855469 368.835938 258.269531 370.96875 258.269531 C 371.953125 258.269531 372.871094 258.371094 373.722656 258.5625 C 374.570312 258.75 375.472656 259.074219 376.417969 259.523438 L 375.433594 261.761719 C 374.777344 261.386719 374.039062 261.089844 373.21875 260.871094 C 372.402344 260.65625 371.652344 260.542969 370.96875 260.542969 C 369.636719 260.542969 368.570312 260.890625 367.757812 261.574219 C 366.953125 262.265625 366.550781 263.203125 366.550781 264.386719 C 366.550781 264.921875 366.632812 265.378906 366.796875 265.757812 C 366.964844 266.144531 367.234375 266.507812 367.605469 266.847656 C 367.972656 267.1875 368.675781 267.65625 369.726562 268.253906 C 371.183594 269.132812 372.167969 269.820312 372.679688 270.316406 C 373.1875 270.808594 373.574219 271.359375 373.839844 271.957031 C 374.101562 272.5625 374.238281 273.257812 374.238281 274.054688 Z M 374.238281 274.054688 " fill-opacity="1" fill-rule="nonzero"/><path fill="#006ccd" d="M 382.660156 264.035156 L 380.433594 274.394531 C 380.253906 275.28125 380.164062 275.972656 380.164062 276.46875 C 380.164062 277.894531 380.894531 278.601562 382.355469 278.601562 C 383.230469 278.601562 384.089844 278.308594 384.933594 277.710938 C 385.777344 277.113281 386.519531 276.257812 387.160156 275.144531 C 387.808594 274.03125 388.300781 272.683594 388.636719 271.113281 L 390.125 264.035156 L 392.609375 264.035156 L 389.164062 280.371094 L 387.089844 280.371094 L 387.417969 277.347656 L 387.242188 277.347656 C 386.265625 278.589844 385.335938 279.457031 384.453125 279.9375 C 383.570312 280.421875 382.65625 280.664062 381.710938 280.664062 C 380.4375 280.664062 379.4375 280.324219 378.710938 279.632812 C 377.992188 278.949219 377.632812 277.964844 377.632812 276.679688 C 377.632812 276.066406 377.742188 275.210938 377.960938 274.113281 L 380.128906 264.035156 Z M 382.660156 264.035156 " fill-opacity="1" fill-rule="nonzero"/><path fill="#006ccd" d="M 404.511719 275.742188 C 404.511719 277.289062 403.960938 278.496094 402.859375 279.363281 C 401.761719 280.230469 400.214844 280.664062 398.21875 280.664062 C 396.535156 280.664062 395.023438 280.324219 393.671875 279.644531 L 393.671875 277.289062 C 394.367188 277.707031 395.117188 278.027344 395.921875 278.261719 C 396.722656 278.492188 397.472656 278.601562 398.160156 278.601562 C 399.40625 278.601562 400.351562 278.355469 400.984375 277.863281 C 401.621094 277.367188 401.945312 276.726562 401.945312 275.941406 C 401.945312 275.378906 401.769531 274.910156 401.417969 274.523438 C 401.070312 274.136719 400.320312 273.597656 399.167969 272.917969 C 397.878906 272.191406 396.964844 271.484375 396.425781 270.785156 C 395.890625 270.09375 395.628906 269.269531 395.628906 268.3125 C 395.628906 266.949219 396.125 265.847656 397.128906 265.007812 C 398.136719 264.164062 399.453125 263.742188 401.089844 263.742188 C 402.792969 263.742188 404.433594 264.113281 406.011719 264.84375 L 405.203125 266.882812 L 404.371094 266.519531 C 403.367188 266.09375 402.277344 265.875 401.089844 265.875 C 400.167969 265.875 399.441406 266.09375 398.910156 266.519531 C 398.386719 266.953125 398.125 267.511719 398.125 268.195312 C 398.125 268.753906 398.300781 269.226562 398.652344 269.625 C 399.007812 270.023438 399.742188 270.539062 400.84375 271.160156 C 401.902344 271.765625 402.664062 272.28125 403.128906 272.707031 C 403.589844 273.128906 403.929688 273.585938 404.160156 274.078125 C 404.394531 274.570312 404.511719 275.128906 404.511719 275.742188 Z M 404.511719 275.742188 " fill-opacity="1" fill-rule="nonzero"/><path fill="#006ccd" d="M 412.5 278.625 C 413.046875 278.625 413.761719 278.496094 414.644531 278.238281 L 414.644531 280.160156 C 414.308594 280.300781 413.890625 280.417969 413.390625 280.511719 C 412.898438 280.613281 412.503906 280.664062 412.207031 280.664062 C 410.964844 280.664062 410.011719 280.371094 409.347656 279.785156 C 408.691406 279.195312 408.363281 278.308594 408.363281 277.136719 C 408.363281 276.480469 408.453125 275.738281 408.632812 274.898438 L 410.519531 265.933594 L 407.953125 265.933594 L 408.164062 264.84375 L 410.917969 263.683594 L 412.78125 260.285156 L 414.246094 260.285156 L 413.425781 264.035156 L 417.507812 264.035156 L 417.121094 265.933594 L 413.050781 265.933594 L 411.128906 274.933594 C 410.949219 275.800781 410.859375 276.457031 410.859375 276.902344 C 410.859375 277.460938 411.003906 277.886719 411.292969 278.179688 C 411.582031 278.480469 411.984375 278.625 412.5 278.625 Z M 412.5 278.625 " fill-opacity="1" fill-rule="nonzero"/><path fill="#006ccd" d="M 426.027344 263.742188 C 426.941406 263.742188 427.753906 263.988281 428.476562 264.480469 C 429.195312 264.972656 429.746094 265.683594 430.140625 266.601562 L 430.304688 266.601562 L 431.3125 264.035156 L 433.199219 264.035156 L 429.730469 280.371094 L 427.75 280.371094 L 428.136719 277.253906 L 428.019531 277.253906 C 426.238281 279.527344 424.363281 280.664062 422.394531 280.664062 C 421.015625 280.664062 419.933594 280.179688 419.148438 279.199219 C 418.363281 278.214844 417.976562 276.867188 417.976562 275.15625 C 417.976562 273.09375 418.328125 271.183594 419.03125 269.414062 C 419.734375 267.644531 420.707031 266.257812 421.949219 265.253906 C 423.191406 264.246094 424.550781 263.742188 426.027344 263.742188 Z M 423.203125 278.601562 C 424.164062 278.601562 425.117188 278.144531 426.074219 277.21875 C 427.027344 276.300781 427.800781 275.105469 428.394531 273.632812 C 428.996094 272.15625 429.296875 270.679688 429.296875 269.191406 C 429.296875 268.171875 429.019531 267.359375 428.464844 266.753906 C 427.90625 266.144531 427.179688 265.839844 426.273438 265.839844 C 425.242188 265.839844 424.28125 266.273438 423.390625 267.128906 C 422.5 267.984375 421.796875 269.140625 421.292969 270.597656 C 420.78125 272.0625 420.53125 273.597656 420.53125 275.214844 C 420.53125 276.351562 420.765625 277.195312 421.234375 277.757812 C 421.703125 278.320312 422.359375 278.601562 423.203125 278.601562 Z M 423.203125 278.601562 " fill-opacity="1" fill-rule="nonzero"/><path fill="#006ccd" d="M 437.132812 280.371094 L 434.625 280.371094 L 438.117188 264.035156 L 440.613281 264.035156 Z M 438.808594 259.863281 C 438.808594 259.308594 438.96875 258.855469 439.289062 258.503906 C 439.609375 258.152344 440.023438 257.976562 440.53125 257.976562 C 441.398438 257.976562 441.832031 258.421875 441.832031 259.3125 C 441.832031 259.859375 441.664062 260.328125 441.328125 260.707031 C 441 261.082031 440.617188 261.269531 440.179688 261.269531 C 439.78125 261.269531 439.453125 261.148438 439.195312 260.90625 C 438.9375 260.667969 438.808594 260.316406 438.808594 259.863281 Z M 438.808594 259.863281 " fill-opacity="1" fill-rule="nonzero"/><path fill="#006ccd" d="M 452.355469 280.371094 L 454.558594 270.058594 C 454.761719 269.027344 454.863281 268.3125 454.863281 267.914062 C 454.863281 267.292969 454.683594 266.789062 454.324219 266.414062 C 453.972656 266.035156 453.410156 265.839844 452.636719 265.839844 C 451.753906 265.839844 450.890625 266.144531 450.046875 266.742188 C 449.210938 267.339844 448.472656 268.183594 447.832031 269.285156 C 447.191406 270.386719 446.707031 271.722656 446.378906 273.292969 L 444.878906 280.371094 L 442.371094 280.371094 L 445.863281 264.035156 L 447.925781 264.035156 L 447.597656 267.070312 L 447.75 267.070312 C 448.703125 265.851562 449.625 264.996094 450.515625 264.492188 C 451.40625 263.996094 452.328125 263.742188 453.28125 263.742188 C 454.539062 263.742188 455.53125 264.09375 456.257812 264.785156 C 456.992188 265.476562 457.359375 266.4375 457.359375 267.679688 C 457.359375 268.464844 457.246094 269.355469 457.019531 270.363281 L 454.886719 280.371094 Z M 452.355469 280.371094 " fill-opacity="1" fill-rule="nonzero"/><path fill="#006ccd" d="M 468.617188 263.742188 C 469.53125 263.742188 470.34375 263.988281 471.066406 264.480469 C 471.785156 264.972656 472.335938 265.683594 472.730469 266.601562 L 472.894531 266.601562 L 473.902344 264.035156 L 475.789062 264.035156 L 472.320312 280.371094 L 470.339844 280.371094 L 470.726562 277.253906 L 470.609375 277.253906 C 468.828125 279.527344 466.953125 280.664062 464.984375 280.664062 C 463.605469 280.664062 462.527344 280.179688 461.738281 279.199219 C 460.957031 278.214844 460.566406 276.867188 460.566406 275.15625 C 460.566406 273.09375 460.917969 271.183594 461.621094 269.414062 C 462.324219 267.644531 463.296875 266.257812 464.539062 265.253906 C 465.78125 264.246094 467.140625 263.742188 468.617188 263.742188 Z M 465.792969 278.601562 C 466.753906 278.601562 467.707031 278.144531 468.664062 277.21875 C 469.617188 276.300781 470.390625 275.105469 470.984375 273.632812 C 471.585938 272.15625 471.886719 270.679688 471.886719 269.191406 C 471.886719 268.171875 471.609375 267.359375 471.054688 266.753906 C 470.496094 266.144531 469.769531 265.839844 468.863281 265.839844 C 467.832031 265.839844 466.871094 266.273438 465.980469 267.128906 C 465.089844 267.984375 464.390625 269.140625 463.882812 270.597656 C 463.371094 272.0625 463.121094 273.597656 463.121094 275.214844 C 463.121094 276.351562 463.355469 277.195312 463.824219 277.757812 C 464.292969 278.320312 464.949219 278.601562 465.792969 278.601562 Z M 465.792969 278.601562 " fill-opacity="1" fill-rule="nonzero"/><path fill="#006ccd" d="M 484.457031 280.664062 C 483.496094 280.664062 482.648438 280.414062 481.914062 279.914062 C 481.1875 279.410156 480.640625 278.71875 480.273438 277.839844 L 480.121094 277.839844 L 479.078125 280.371094 L 477.214844 280.371094 L 482.136719 257.191406 L 484.632812 257.191406 C 484.125 259.589844 483.734375 261.433594 483.460938 262.710938 C 483.1875 263.988281 482.8125 265.476562 482.335938 267.1875 L 482.476562 267.1875 C 483.398438 266.015625 484.308594 265.160156 485.207031 264.609375 C 486.105469 264.058594 487.03125 263.777344 487.984375 263.777344 C 489.390625 263.777344 490.484375 264.269531 491.265625 265.253906 C 492.046875 266.234375 492.4375 267.582031 492.4375 269.296875 C 492.4375 271.378906 492.097656 273.300781 491.417969 275.0625 C 490.738281 276.820312 489.789062 278.199219 488.570312 279.1875 C 487.359375 280.171875 485.988281 280.664062 484.457031 280.664062 Z M 487.222656 265.839844 C 486.269531 265.839844 485.296875 266.316406 484.304688 267.257812 C 483.320312 268.207031 482.539062 269.390625 481.960938 270.820312 C 481.382812 272.25 481.09375 273.714844 481.09375 275.214844 C 481.09375 276.3125 481.367188 277.148438 481.914062 277.734375 C 482.46875 278.316406 483.265625 278.601562 484.304688 278.601562 C 485.289062 278.601562 486.207031 278.203125 487.058594 277.394531 C 487.910156 276.59375 488.59375 275.449219 489.109375 273.960938 C 489.625 272.480469 489.882812 270.902344 489.882812 269.226562 C 489.882812 266.972656 488.996094 265.839844 487.222656 265.839844 Z M 487.222656 265.839844 " fill-opacity="1" fill-rule="nonzero"/><path fill="#006ccd" d="M 497.296875 280.371094 L 494.789062 280.371094 L 499.746094 257.191406 L 502.242188 257.191406 Z M 497.296875 280.371094 " fill-opacity="1" fill-rule="nonzero"/><path fill="#006ccd" d="M 509.027344 280.664062 C 507.199219 280.664062 505.761719 280.125 504.714844 279.046875 C 503.675781 277.964844 503.15625 276.464844 503.15625 274.546875 C 503.15625 272.683594 503.523438 270.890625 504.257812 269.179688 C 505 267.464844 505.980469 266.128906 507.199219 265.171875 C 508.425781 264.222656 509.773438 263.742188 511.242188 263.742188 C 512.765625 263.742188 513.90625 264.078125 514.664062 264.738281 C 515.429688 265.394531 515.8125 266.316406 515.8125 267.492188 C 515.8125 269.285156 514.988281 270.691406 513.339844 271.710938 C 511.691406 272.730469 509.332031 273.234375 506.261719 273.234375 L 505.769531 273.234375 L 505.710938 274.429688 C 505.710938 275.730469 506.015625 276.746094 506.625 277.476562 C 507.242188 278.203125 508.191406 278.566406 509.472656 278.566406 C 510.097656 278.566406 510.738281 278.480469 511.394531 278.296875 C 512.058594 278.121094 512.882812 277.792969 513.867188 277.3125 L 513.867188 279.492188 C 512.929688 279.933594 512.101562 280.238281 511.382812 280.40625 C 510.671875 280.578125 509.886719 280.664062 509.027344 280.664062 Z M 511.089844 265.875 C 510.066406 265.875 509.105469 266.34375 508.207031 267.28125 C 507.308594 268.214844 506.621094 269.507812 506.144531 271.160156 L 506.320312 271.160156 C 508.585938 271.160156 510.320312 270.867188 511.523438 270.28125 C 512.734375 269.691406 513.339844 268.828125 513.339844 267.703125 C 513.339844 267.183594 513.15625 266.75 512.789062 266.402344 C 512.429688 266.050781 511.863281 265.875 511.089844 265.875 Z M 511.089844 265.875 " fill-opacity="1" fill-rule="nonzero"/><path fill="#006ccd" d="M 528.507812 280.371094 L 525.941406 280.371094 L 530.546875 258.585938 L 541.503906 258.585938 L 541.058594 260.871094 L 532.585938 260.871094 L 530.957031 268.804688 L 538.820312 268.804688 L 538.339844 271.089844 L 530.464844 271.089844 Z M 528.507812 280.371094 " fill-opacity="1" fill-rule="nonzero"/><path fill="#006ccd" d="M 545.78125 264.035156 L 543.554688 274.394531 C 543.375 275.28125 543.285156 275.972656 543.285156 276.46875 C 543.285156 277.894531 544.015625 278.601562 545.476562 278.601562 C 546.351562 278.601562 547.210938 278.308594 548.054688 277.710938 C 548.898438 277.113281 549.640625 276.257812 550.285156 275.144531 C 550.929688 274.03125 551.421875 272.683594 551.761719 271.113281 L 553.25 264.035156 L 555.734375 264.035156 L 552.289062 280.371094 L 550.214844 280.371094 L 550.542969 277.347656 L 550.367188 277.347656 C 549.386719 278.589844 548.457031 279.457031 547.574219 279.9375 C 546.691406 280.421875 545.777344 280.664062 544.832031 280.664062 C 543.558594 280.664062 542.558594 280.324219 541.832031 279.632812 C 541.113281 278.949219 540.753906 277.964844 540.753906 276.679688 C 540.753906 276.066406 540.863281 275.210938 541.082031 274.113281 L 543.25 264.035156 Z M 545.78125 264.035156 " fill-opacity="1" fill-rule="nonzero"/><path fill="#006ccd" d="M 562.558594 278.625 C 563.105469 278.625 563.820312 278.496094 564.703125 278.238281 L 564.703125 280.160156 C 564.367188 280.300781 563.949219 280.417969 563.449219 280.511719 C 562.957031 280.613281 562.5625 280.664062 562.265625 280.664062 C 561.023438 280.664062 560.070312 280.371094 559.40625 279.785156 C 558.75 279.195312 558.421875 278.308594 558.421875 277.136719 C 558.421875 276.480469 558.511719 275.738281 558.691406 274.898438 L 560.578125 265.933594 L 558.011719 265.933594 L 558.222656 264.84375 L 560.976562 263.683594 L 562.839844 260.285156 L 564.304688 260.285156 L 563.484375 264.035156 L 567.5625 264.035156 L 567.175781 265.933594 L 563.109375 265.933594 L 561.1875 274.933594 C 561.007812 275.800781 560.917969 276.457031 560.917969 276.902344 C 560.917969 277.460938 561.0625 277.886719 561.351562 278.179688 C 561.640625 278.480469 562.042969 278.625 562.558594 278.625 Z M 562.558594 278.625 " fill-opacity="1" fill-rule="nonzero"/><path fill="#006ccd" d="M 573.28125 264.035156 L 571.054688 274.394531 C 570.875 275.28125 570.785156 275.972656 570.785156 276.46875 C 570.785156 277.894531 571.515625 278.601562 572.976562 278.601562 C 573.851562 278.601562 574.710938 278.308594 575.554688 277.710938 C 576.398438 277.113281 577.140625 276.257812 577.78125 275.144531 C 578.429688 274.03125 578.921875 272.683594 579.257812 271.113281 L 580.75 264.035156 L 583.234375 264.035156 L 579.785156 280.371094 L 577.710938 280.371094 L 578.039062 277.347656 L 577.863281 277.347656 C 576.886719 278.589844 575.957031 279.457031 575.074219 279.9375 C 574.191406 280.421875 573.277344 280.664062 572.332031 280.664062 C 571.058594 280.664062 570.058594 280.324219 569.332031 279.632812 C 568.613281 278.949219 568.253906 277.964844 568.253906 276.679688 C 568.253906 276.066406 568.363281 275.210938 568.582031 274.113281 L 570.75 264.035156 Z M 573.28125 264.035156 " fill-opacity="1" fill-rule="nonzero"/><path fill="#006ccd" d="M 595.378906 263.742188 C 596.066406 263.742188 596.664062 263.8125 597.171875 263.953125 L 596.632812 266.191406 C 596.109375 266.0625 595.585938 265.992188 595.0625 265.992188 C 594.164062 265.992188 593.320312 266.296875 592.53125 266.894531 C 591.742188 267.492188 591.050781 268.3125 590.457031 269.367188 C 589.863281 270.421875 589.429688 271.601562 589.15625 272.894531 L 587.5625 280.371094 L 585.054688 280.371094 L 588.546875 264.035156 L 590.609375 264.035156 L 590.28125 267.070312 L 590.433594 267.070312 C 591.152344 266.128906 591.742188 265.449219 592.203125 265.03125 C 592.671875 264.621094 593.160156 264.304688 593.667969 264.082031 C 594.183594 263.859375 594.753906 263.742188 595.378906 263.742188 Z M 595.378906 263.742188 " fill-opacity="1" fill-rule="nonzero"/><path fill="#006ccd" d="M 603.59375 280.664062 C 601.765625 280.664062 600.328125 280.125 599.28125 279.046875 C 598.242188 277.964844 597.722656 276.464844 597.722656 274.546875 C 597.722656 272.683594 598.089844 270.890625 598.824219 269.179688 C 599.566406 267.464844 600.546875 266.128906 601.765625 265.171875 C 602.988281 264.222656 604.335938 263.742188 605.808594 263.742188 C 607.332031 263.742188 608.472656 264.078125 609.230469 264.738281 C 609.996094 265.394531 610.378906 266.316406 610.378906 267.492188 C 610.378906 269.285156 609.554688 270.691406 607.90625 271.710938 C 606.257812 272.730469 603.898438 273.234375 600.828125 273.234375 L 600.335938 273.234375 L 600.277344 274.429688 C 600.277344 275.730469 600.582031 276.746094 601.191406 277.476562 C 601.804688 278.203125 602.753906 278.566406 604.039062 278.566406 C 604.664062 278.566406 605.304688 278.480469 605.960938 278.296875 C 606.625 278.121094 607.449219 277.792969 608.433594 277.3125 L 608.433594 279.492188 C 607.496094 279.933594 606.667969 280.238281 605.949219 280.40625 C 605.238281 280.578125 604.453125 280.664062 603.59375 280.664062 Z M 605.65625 265.875 C 604.628906 265.875 603.667969 266.34375 602.773438 267.28125 C 601.875 268.214844 601.183594 269.507812 600.710938 271.160156 L 600.886719 271.160156 C 603.152344 271.160156 604.886719 270.867188 606.089844 270.28125 C 607.300781 269.691406 607.90625 268.828125 607.90625 267.703125 C 607.90625 267.183594 607.722656 266.75 607.355469 266.402344 C 606.996094 266.050781 606.429688 265.875 605.65625 265.875 Z M 605.65625 265.875 " fill-opacity="1" fill-rule="nonzero"/><g clip-path="url(#0c0168cfa6)"><path fill="#006ccd" d="M 275.683594 230.738281 C 267.839844 232.355469 261.992188 233.09375 254.816406 229.945312 C 239.0625 223.046875 232.394531 197.808594 250.929688 184.226562 C 262.078125 176.058594 278.992188 179.035156 286.019531 188.503906 C 289.761719 193.554688 292.253906 198.257812 292.179688 206.550781 C 292.101562 214.933594 288.792969 219.03125 285.351562 223.875 C 281.515625 222.253906 281.597656 214.449219 270.144531 221.933594 C 271.101562 224.292969 274.949219 227.574219 275.683594 230.738281 Z M 425.679688 180.871094 L 445.652344 181.023438 C 446.621094 186.007812 444.585938 236.40625 446.027344 241.722656 L 457.574219 241.929688 C 458.292969 233.585938 457.046875 183.824219 458.527344 181.382812 C 461.84375 179.9375 474.617188 181.835938 478.78125 180.957031 L 479.214844 169.523438 L 425.378906 169.703125 Z M 390.945312 218.382812 C 390.304688 216.902344 391.105469 215.996094 391.871094 214.699219 L 400.761719 194.789062 C 401.390625 193.128906 401.316406 192.625 402.28125 191.605469 L 403.234375 193.234375 C 405.59375 198.714844 414.296875 215.835938 414.402344 218.703125 Z M 367.777344 241.742188 L 379.164062 241.875 L 385.683594 229.210938 L 412.191406 229.238281 C 414.824219 229.210938 418.523438 228.746094 419.675781 230.398438 L 423.78125 239.082031 C 425.554688 243.011719 425.136719 241.894531 437.390625 242.019531 C 437.160156 239.625 430.707031 226.507812 429.167969 222.960938 L 411.894531 185.394531 C 408.945312 179.207031 406.347656 172.949219 402.730469 167.023438 C 400.5 168.683594 378.453125 217.808594 376.023438 222.777344 C 374.582031 225.722656 373.230469 229.171875 371.714844 232.03125 C 370.808594 233.742188 367.363281 240.199219 367.777344 241.742188 Z M 321.613281 209.851562 C 321.519531 204.242188 321.78125 171.824219 321.273438 169.570312 L 309.214844 169.648438 C 308.988281 171.875 309.53125 179.265625 309.601562 182.246094 C 309.820312 191.628906 308.984375 213.824219 310.777344 220.109375 C 319.785156 251.726562 362.59375 249.707031 369.933594 220.652344 C 371.757812 213.429688 371 191.847656 371.050781 182.246094 C 371.074219 178.585938 371.46875 172.894531 370.996094 169.5 L 358.839844 169.730469 C 358.472656 182.589844 359.402344 196.546875 358.980469 209.863281 C 358.582031 222.25 353.246094 231.828125 340.445312 231.925781 C 328.71875 232.015625 321.800781 221.324219 321.613281 209.851562 Z M 178.097656 242.210938 L 224.523438 242.386719 C 224.683594 239.933594 224.964844 233.585938 224.339844 231.546875 C 217.859375 230.53125 193.453125 232.460938 190.214844 230.976562 C 189.933594 228.808594 190.101562 224.617188 190.089844 222.203125 L 190 215.167969 C 190.066406 213.449219 189.753906 212.75 193.605469 212.75 C 194.847656 212.75 196.097656 212.769531 197.347656 212.773438 C 202.726562 212.792969 216.625 212.382812 220.136719 213.011719 C 220.21875 211.539062 220.769531 203.597656 219.523438 202.507812 C 216.710938 200.753906 195.484375 203.378906 190.152344 202.1875 C 189.648438 200.265625 189.875 182.929688 190.464844 181.15625 C 195.332031 180.710938 202.199219 181.0625 207.253906 181.121094 C 211.109375 181.164062 221.589844 181.625 224.703125 180.933594 C 224.113281 178.621094 224.671875 173.046875 224.535156 169.914062 L 177.796875 169.753906 C 178.464844 181.242188 177.039062 238.484375 178.101562 242.210938 Z M 557.492188 175.246094 C 557.515625 177.183594 557.523438 179.441406 558.304688 180.957031 C 566.902344 182.832031 584.589844 178.4375 591.195312 182.808594 C 599.71875 188.445312 595.242188 203.132812 584.9375 202.628906 C 583.390625 203.847656 572.304688 203.863281 569.640625 203.445312 C 568.8125 199.609375 570.789062 194.34375 569.097656 191.144531 C 565.527344 191.957031 561.566406 190.910156 557.894531 191.246094 C 558.804688 201.410156 557.394531 237.871094 558.34375 241.960938 C 561.109375 242.230469 566.457031 241.800781 570.078125 241.882812 L 569.996094 214.238281 C 571.378906 213.894531 576.675781 213.574219 578.054688 213.949219 C 579.671875 214.386719 581.164062 216.832031 582.054688 218.277344 L 595.230469 238.90625 C 596.601562 240.921875 597.191406 241.664062 600.355469 241.949219 C 602.859375 242.175781 605.515625 242.222656 608.257812 242.234375 L 611.828125 242.25 C 611.6875 241.003906 601.035156 226.449219 599.453125 223.976562 C 598.089844 221.84375 596.304688 220.1875 595.5 217.800781 C 594.691406 217.1875 592.828125 214.175781 592.523438 212.730469 C 595.238281 210.929688 594.390625 212.828125 600.503906 208.261719 C 604.144531 205.539062 603.574219 205.199219 606.09375 201.605469 C 606.65625 198.128906 607.757812 196.347656 607.777344 192.132812 C 607.816406 183.214844 604.195312 176.550781 596.371094 172.289062 C 591.074219 169.402344 585.054688 169.492188 578.121094 169.519531 L 556.960938 169.542969 L 557.496094 175.238281 Z M 522.027344 231.0625 C 519.195312 233.609375 507.683594 233.382812 504.964844 230.648438 C 497.480469 230.027344 485.703125 215.078125 488.75 200.753906 C 495.332031 169.84375 537.328125 174.929688 540.03125 201.589844 C 540.972656 210.898438 539.761719 214.773438 535.777344 220.9375 C 534.382812 223.09375 532.050781 225.878906 530.097656 227.210938 C 528.25 228.46875 524.679688 231.066406 522.023438 231.0625 Z M 544.96875 182.386719 L 543.1875 180.628906 C 534.898438 170.835938 524.066406 167.515625 510.632812 167.882812 C 493.929688 169.503906 480.789062 182.542969 477.234375 197.5625 C 474.996094 207.015625 476.792969 216.410156 480.675781 224.117188 C 488.25 239.152344 506.578125 246.8125 523.789062 242.394531 C 527.65625 241.398438 532.503906 239.539062 535.074219 237.535156 C 541.21875 232.742188 537.984375 235.648438 543.632812 230.011719 C 553.175781 220.488281 555.140625 200.628906 548.011719 187.367188 Z M 304.183594 241.976562 L 293.46875 232.089844 C 294.527344 229.734375 303.988281 223.074219 303.890625 204.078125 C 303.835938 192.546875 297.972656 183.128906 292.039062 177.570312 C 277.316406 163.789062 252.390625 163.984375 237.839844 180.640625 C 212.996094 209.078125 236.691406 246.644531 269.128906 243.445312 C 273.8125 242.984375 281.996094 240.914062 286.035156 241.609375 C 288.804688 242.082031 301.546875 243.03125 304.183594 241.976562 Z M 304.183594 241.976562 " fill-opacity="1" fill-rule="evenodd"/></g></svg>